<?xml version="1.0" encoding="UTF-8" standalone="no"?>
<!DOCTYPE svg PUBLIC "-//W3C//DTD SVG 1.1//EN"
 "http://www.w3.org/Graphics/SVG/1.1/DTD/svg11.dtd">
<!-- Generated by graphviz version 2.47.3 (20210619.1520)
 -->
<!-- Title: dependencies Pages: 1 -->
<svg width="212pt" height="174pt"
 viewBox="0.00 0.00 212.00 173.80" xmlns="http://www.w3.org/2000/svg" xmlns:xlink="http://www.w3.org/1999/xlink">
<g id="graph0" class="graph" transform="scale(1 1) rotate(0) translate(4 169.8)">
<title>dependencies</title>
<polygon fill="white" stroke="transparent" points="-4,4 -4,-169.8 208,-169.8 208,4 -4,4"/>
<text text-anchor="middle" x="102" y="-8.2" font-family="sans-serif" font-size="14.00">dependencies</text>
<g id="clust1" class="cluster">
<title>cluster_CategoriaModule</title>
<polygon fill="none" stroke="black" stroke-dasharray="1,5" points="8,-32.8 8,-157.8 196,-157.8 196,-32.8 8,-32.8"/>
</g>
<g id="clust6" class="cluster">
<title>cluster_CategoriaModule_providers</title>
<polygon fill="none" stroke="black" points="16,-40.8 16,-92.8 188,-92.8 188,-40.8 16,-40.8"/>
</g>
<!-- CategoriaService -->
<g id="node1" class="node">
<title>CategoriaService</title>
<ellipse fill="#fdb462" stroke="black" cx="102" cy="-66.8" rx="77.56" ry="18"/>
<text text-anchor="middle" x="102" y="-62.6" font-family="Times,serif" font-size="14.00">CategoriaService</text>
</g>
<!-- CategoriaModule -->
<g id="node2" class="node">
<title>CategoriaModule</title>
<polygon fill="#8dd3c7" stroke="black" points="158.97,-149.8 155.97,-153.8 134.97,-153.8 131.97,-149.8 45.03,-149.8 45.03,-113.8 158.97,-113.8 158.97,-149.8"/>
<text text-anchor="middle" x="102" y="-127.6" font-family="Times,serif" font-size="14.00">CategoriaModule</text>
</g>
<!-- CategoriaService&#45;&gt;CategoriaModule -->
<g id="edge1" class="edge">
<title>CategoriaService&#45;&gt;CategoriaModule</title>
<path fill="none" stroke="black" d="M102,-84.91C102,-84.91 102,-103.79 102,-103.79"/>
<polygon fill="black" stroke="black" points="98.5,-103.79 102,-113.79 105.5,-103.79 98.5,-103.79"/>
</g>
</g>
</svg>
