<?xml version="1.0" encoding="UTF-8" standalone="no"?>
<!DOCTYPE svg PUBLIC "-//W3C//DTD SVG 1.1//EN"
 "http://www.w3.org/Graphics/SVG/1.1/DTD/svg11.dtd">
<!-- Generated by graphviz version 2.47.3 (20210619.1520)
 -->
<!-- Title: dependencies Pages: 1 -->
<svg width="286pt" height="174pt"
 viewBox="0.00 0.00 286.00 173.80" xmlns="http://www.w3.org/2000/svg" xmlns:xlink="http://www.w3.org/1999/xlink">
<g id="graph0" class="graph" transform="scale(1 1) rotate(0) translate(4 169.8)">
<title>dependencies</title>
<polygon fill="white" stroke="transparent" points="-4,4 -4,-169.8 282,-169.8 282,4 -4,4"/>
<text text-anchor="middle" x="139" y="-8.2" font-family="sans-serif" font-size="14.00">dependencies</text>
<g id="clust1" class="cluster">
<title>cluster_AppModule</title>
<polygon fill="none" stroke="black" stroke-dasharray="1,5" points="8,-32.8 8,-157.8 270,-157.8 270,-32.8 8,-32.8"/>
</g>
<g id="clust3" class="cluster">
<title>cluster_AppModule_imports</title>
<polygon fill="none" stroke="black" points="16,-40.8 16,-92.8 262,-92.8 262,-40.8 16,-40.8"/>
</g>
<!-- CategoriaModule -->
<g id="node1" class="node">
<title>CategoriaModule</title>
<polygon fill="#8dd3c7" stroke="black" points="253.97,-84.8 250.97,-88.8 229.97,-88.8 226.97,-84.8 140.03,-84.8 140.03,-48.8 253.97,-48.8 253.97,-84.8"/>
<text text-anchor="middle" x="197" y="-62.6" font-family="Times,serif" font-size="14.00">CategoriaModule</text>
</g>
<!-- AppModule -->
<g id="node3" class="node">
<title>AppModule</title>
<polygon fill="#8dd3c7" stroke="black" points="176.66,-149.8 173.66,-153.8 152.66,-153.8 149.66,-149.8 93.34,-149.8 93.34,-113.8 176.66,-113.8 176.66,-149.8"/>
<text text-anchor="middle" x="135" y="-127.6" font-family="Times,serif" font-size="14.00">AppModule</text>
</g>
<!-- CategoriaModule&#45;&gt;AppModule -->
<g id="edge1" class="edge">
<title>CategoriaModule&#45;&gt;AppModule</title>
<path fill="none" stroke="black" d="M158.42,-84.91C158.42,-84.91 158.42,-103.79 158.42,-103.79"/>
<polygon fill="black" stroke="black" points="154.92,-103.79 158.42,-113.79 161.92,-103.79 154.92,-103.79"/>
</g>
<!-- PessoaModule -->
<g id="node2" class="node">
<title>PessoaModule</title>
<polygon fill="#8dd3c7" stroke="black" points="121.65,-84.8 118.65,-88.8 97.65,-88.8 94.65,-84.8 24.35,-84.8 24.35,-48.8 121.65,-48.8 121.65,-84.8"/>
<text text-anchor="middle" x="73" y="-62.6" font-family="Times,serif" font-size="14.00">PessoaModule</text>
</g>
<!-- PessoaModule&#45;&gt;AppModule -->
<g id="edge2" class="edge">
<title>PessoaModule&#45;&gt;AppModule</title>
<path fill="none" stroke="black" d="M107.5,-84.91C107.5,-84.91 107.5,-103.79 107.5,-103.79"/>
<polygon fill="black" stroke="black" points="104,-103.79 107.5,-113.79 111,-103.79 104,-103.79"/>
</g>
</g>
</svg>
