<?xml version="1.0" encoding="UTF-8" standalone="no"?>
<!DOCTYPE svg PUBLIC "-//W3C//DTD SVG 1.1//EN"
 "http://www.w3.org/Graphics/SVG/1.1/DTD/svg11.dtd">
<!-- Generated by graphviz version 2.47.3 (20210619.1520)
 -->
<!-- Title: dependencies Pages: 1 -->
<svg width="384pt" height="250pt"
 viewBox="0.00 0.00 384.00 249.80" xmlns="http://www.w3.org/2000/svg" xmlns:xlink="http://www.w3.org/1999/xlink">
<g id="graph0" class="graph" transform="scale(1 1) rotate(0) translate(4 245.8)">
<title>dependencies</title>
<polygon fill="white" stroke="transparent" points="-4,4 -4,-245.8 380,-245.8 380,4 -4,4"/>
<text text-anchor="middle" x="188" y="-8.2" font-family="sans-serif" font-size="14.00">dependencies</text>
<g id="clust1" class="cluster">
<title>cluster_AppModule</title>
<polygon fill="none" stroke="black" stroke-dasharray="1,5" points="59,-108.8 59,-233.8 321,-233.8 321,-108.8 59,-108.8"/>
</g>
<g id="clust3" class="cluster">
<title>cluster_AppModule_imports</title>
<polygon fill="none" stroke="black" points="67,-116.8 67,-168.8 313,-168.8 313,-116.8 67,-116.8"/>
</g>
<g id="clust7" class="cluster">
<title>cluster_CategoriaModule</title>
<polygon fill="none" stroke="black" stroke-dasharray="1,5" points="8,-32.8 8,-100.8 196,-100.8 196,-32.8 8,-32.8"/>
</g>
<g id="clust12" class="cluster">
<title>cluster_CategoriaModule_providers</title>
<polygon fill="none" stroke="black" points="16,-40.8 16,-92.8 188,-92.8 188,-40.8 16,-40.8"/>
</g>
<g id="clust13" class="cluster">
<title>cluster_PessoaModule</title>
<polygon fill="none" stroke="black" stroke-dasharray="1,5" points="204,-32.8 204,-100.8 368,-100.8 368,-32.8 204,-32.8"/>
</g>
<g id="clust18" class="cluster">
<title>cluster_PessoaModule_providers</title>
<polygon fill="none" stroke="black" points="212,-40.8 212,-92.8 360,-92.8 360,-40.8 212,-40.8"/>
</g>
<!-- CategoriaModule -->
<g id="node1" class="node">
<title>CategoriaModule</title>
<polygon fill="#8dd3c7" stroke="black" points="188.97,-160.8 185.97,-164.8 164.97,-164.8 161.97,-160.8 75.03,-160.8 75.03,-124.8 188.97,-124.8 188.97,-160.8"/>
<text text-anchor="middle" x="132" y="-138.6" font-family="Times,serif" font-size="14.00">CategoriaModule</text>
</g>
<!-- AppModule -->
<g id="node3" class="node">
<title>AppModule</title>
<polygon fill="#8dd3c7" stroke="black" points="235.66,-225.8 232.66,-229.8 211.66,-229.8 208.66,-225.8 152.34,-225.8 152.34,-189.8 235.66,-189.8 235.66,-225.8"/>
<text text-anchor="middle" x="194" y="-203.6" font-family="Times,serif" font-size="14.00">AppModule</text>
</g>
<!-- CategoriaModule&#45;&gt;AppModule -->
<g id="edge1" class="edge">
<title>CategoriaModule&#45;&gt;AppModule</title>
<path fill="none" stroke="black" d="M170.58,-160.91C170.58,-160.91 170.58,-179.79 170.58,-179.79"/>
<polygon fill="black" stroke="black" points="167.08,-179.79 170.58,-189.79 174.08,-179.79 167.08,-179.79"/>
</g>
<!-- PessoaModule -->
<g id="node2" class="node">
<title>PessoaModule</title>
<polygon fill="#8dd3c7" stroke="black" points="304.65,-160.8 301.65,-164.8 280.65,-164.8 277.65,-160.8 207.35,-160.8 207.35,-124.8 304.65,-124.8 304.65,-160.8"/>
<text text-anchor="middle" x="256" y="-138.6" font-family="Times,serif" font-size="14.00">PessoaModule</text>
</g>
<!-- PessoaModule&#45;&gt;AppModule -->
<g id="edge2" class="edge">
<title>PessoaModule&#45;&gt;AppModule</title>
<path fill="none" stroke="black" d="M221.5,-160.91C221.5,-160.91 221.5,-179.79 221.5,-179.79"/>
<polygon fill="black" stroke="black" points="218,-179.79 221.5,-189.79 225,-179.79 218,-179.79"/>
</g>
<!-- CategoriaService -->
<g id="node4" class="node">
<title>CategoriaService</title>
<ellipse fill="#fdb462" stroke="black" cx="102" cy="-66.8" rx="77.56" ry="18"/>
<text text-anchor="middle" x="102" y="-62.6" font-family="Times,serif" font-size="14.00">CategoriaService</text>
</g>
<!-- CategoriaService&#45;&gt;CategoriaModule -->
<g id="edge3" class="edge">
<title>CategoriaService&#45;&gt;CategoriaModule</title>
<path fill="none" stroke="black" d="M127.27,-84.05C127.27,-84.05 127.27,-114.56 127.27,-114.56"/>
<polygon fill="black" stroke="black" points="123.77,-114.56 127.27,-124.56 130.77,-114.56 123.77,-114.56"/>
</g>
<!-- PessoaService -->
<g id="node5" class="node">
<title>PessoaService</title>
<ellipse fill="#fdb462" stroke="black" cx="286" cy="-66.8" rx="66.05" ry="18"/>
<text text-anchor="middle" x="286" y="-62.6" font-family="Times,serif" font-size="14.00">PessoaService</text>
</g>
<!-- PessoaService&#45;&gt;PessoaModule -->
<g id="edge4" class="edge">
<title>PessoaService&#45;&gt;PessoaModule</title>
<path fill="none" stroke="black" d="M262.28,-83.67C262.28,-83.67 262.28,-114.65 262.28,-114.65"/>
<polygon fill="black" stroke="black" points="258.78,-114.65 262.28,-124.65 265.78,-114.65 258.78,-114.65"/>
</g>
</g>
</svg>
